<?xml version="1.0" standalone="no"?>
<!DOCTYPE svg PUBLIC "-//W3C//DTD SVG 20010904//EN"
 "http://www.w3.org/TR/2001/REC-SVG-20010904/DTD/svg10.dtd">
<svg version="1.0" xmlns="http://www.w3.org/2000/svg"
 width="700.000000pt" height="700.000000pt" viewBox="0 0 700.000000 700.000000"
 preserveAspectRatio="xMidYMid meet">
<metadata>
Created by potrace 1.11, written by Peter Selinger 2001-2013
</metadata>
<g transform="translate(0.000000,700.000000) scale(0.100000,-0.100000)"
fill="#000000" stroke="none">
<path d="M0 3500 l0 -3500 3500 0 3500 0 0 3500 0 3500 -3500 0 -3500 0 0
-3500z m6560 2672 l0 -237 -110 -17 c-251 -39 -449 -140 -660 -335 -138 -128
-1047 -978 -1101 -1030 l-46 -44 -52 70 c-62 83 -188 204 -286 274 -146 103
-372 194 -545 218 -41 6 -85 13 -97 15 l-23 4 0 215 0 215 58 -6 c294 -29 544
-110 797 -259 85 -50 98 -54 115 -42 10 7 146 130 302 273 493 453 660 598
784 682 143 96 358 184 529 216 110 21 126 23 238 25 l97 1 0 -238z m-3312
-1848 c-162 -408 -173 -434 -196 -434 -25 0 -1043 -68 -1092 -73 -21 -2 49
-64 400 -357 233 -195 431 -360 439 -366 12 -10 10 -28 -17 -135 -18 -68 -81
-317 -141 -552 -64 -248 -105 -427 -98 -424 7 2 190 117 407 254 217 137 412
259 433 272 l37 23 0 -254 0 -254 -887 -644 c-488 -355 -893 -646 -900 -648
-7 -2 -13 0 -13 5 0 4 90 285 200 623 406 1243 512 1572 508 1574 -322 230
-1858 1352 -1858 1358 0 4 517 8 1150 8 1084 0 1150 1 1158 18 5 9 143 429
307 932 163 503 305 938 314 965 15 47 16 10 19 -704 l2 -754 -172 -433z m501
165 c107 -28 219 -90 301 -166 278 -258 318 -665 96 -978 -118 -165 -319 -278
-518 -292 l-78 -6 0 730 c0 401 3 733 7 736 10 10 109 -2 192 -24z m1526 -224
c54 -197 68 -319 62 -525 -6 -190 -25 -303 -78 -465 -34 -104 -139 -321 -199
-414 -22 -35 -40 -66 -38 -70 2 -3 199 -200 438 -437 271 -268 463 -450 510
-483 151 -106 296 -164 480 -191 l115 -16 3 -239 2 -238 -137 6 c-323 14 -594
120 -868 342 -77 62 -577 537 -1099 1042 l-149 145 39 31 c271 219 429 488
489 830 20 115 16 359 -8 464 l-14 63 191 179 191 179 18 -38 c9 -22 33 -96
52 -165z m-1165 -1890 c96 -96 151 -158 145 -164 -12 -10 -137 -51 -245 -80
-74 -19 -231 -46 -322 -54 l-48 -5 0 203 0 203 73 7 c41 3 105 15 143 25 38
10 76 19 84 19 8 1 85 -69 170 -154z"/>
</g>
</svg>
