<svg id="Layer_1" data-name="Layer 1" xmlns="http://www.w3.org/2000/svg" viewBox="0 0 114.89 16.65"><defs><style>.cls-1{fill:#231f20;}.cls-2{fill:#545352;}</style></defs><title>TACC-2-BOINC</title><path class="cls-1" d="M80,.31V3h-3.5V16.33H73.26V3h-3.5V.31Z"/><path class="cls-1" d="M83.27.31h4l4.24,16H88.13L87.39,13H83.13l-.74,3.38H79Zm.42,10h3.14L85.29,3.1h-.05Z"/><path class="cls-1" d="M99.47,5.72c0-2.33-.47-3.34-1.93-3.34-1.64,0-2,1.64-2,6.17,0,4.84.68,5.72,2.07,5.72,1.16,0,2-.61,2-4.06h3.23c0,3.45-.86,6.44-5.1,6.44-4.84,0-5.45-3.46-5.45-8.33S92.9,0,97.74,0c4.62,0,5,3.39,5,5.72Z"/><path class="cls-1" d="M111.52,5.72c0-2.33-.47-3.34-1.93-3.34-1.63,0-2,1.64-2,6.17,0,4.84.67,5.72,2.06,5.72,1.17,0,2-.61,2-4.06h3.23c0,3.45-.85,6.44-5.09,6.44-4.85,0-5.45-3.46-5.45-8.33S105,0,109.8,0c4.62,0,5,3.39,5,5.72Z"/><path class="cls-1" d="M0,.31H5.41C8.05.31,10,1.3,10,4.38a3.35,3.35,0,0,1-2.42,3.5v0c1.77.25,2.91,1.59,2.91,3.72,0,2.52-1.23,4.69-5,4.69H0ZM3.23,6.89h.92c1.77,0,2.58-.61,2.58-2.11S6,2.69,4.4,2.69H3.23Zm0,7.06H4.49c1.54,0,2.6-.56,2.6-2.42S6,9.13,4.62,9.13H3.23Z"/><path class="cls-1" d="M17.6,0c4.84,0,5.45,3.46,5.45,8.32s-.61,8.33-5.45,8.33-5.46-3.46-5.46-8.33S12.75,0,17.6,0Zm0,14.27c1.9,0,2.22-1.64,2.22-5.95S19.5,2.38,17.6,2.38,15.37,4,15.37,8.32,15.69,14.27,17.6,14.27Z"/><path class="cls-1" d="M25.12,16.33V.31h3.23v16Z"/><path class="cls-1" d="M34.48.31l3.9,11h0V.31h3v16H37.71l-4-11.21h0V16.33h-3V.31Z"/><path class="cls-1" d="M50.48,5.72c0-2.33-.47-3.34-1.93-3.34-1.64,0-2,1.64-2,6.17,0,4.84.67,5.72,2.06,5.72,1.17,0,2-.61,2-4.06h3.23c0,3.45-.85,6.44-5.09,6.44-4.84,0-5.45-3.46-5.45-8.33S43.91,0,48.75,0c4.62,0,5,3.39,5,5.72Z"/><path class="cls-2" d="M69.2,12a7.31,7.31,0,0,1-6.37,3.66A7.46,7.46,0,0,1,62.75.7c3.78,0,6.79,2.62,6.79,6.22,0,3.11-2.48,5.75-4.59,5.75a1.72,1.72,0,0,1-1.69-1,3.41,3.41,0,0,1-2.34,1,2.75,2.75,0,0,1-2.74-3c0-2.64,2-6,4.88-6A2.39,2.39,0,0,1,65.27,5l.29-.9h1.32l-2,5.94c-.29.87-.45,1.6.34,1.6,1.63,0,3.13-2.7,3.13-4.79,0-3.21-2.6-5.17-5.57-5.17a6.31,6.31,0,0,0-6.24,6.55,6.27,6.27,0,0,0,6.28,6.4A6.42,6.42,0,0,0,68,12ZM64.46,6.31A1.38,1.38,0,0,0,63.1,4.87c-2.09,0-3.42,2.92-3.42,4.71a1.62,1.62,0,0,0,1.53,1.81C63,11.37,64.46,8.08,64.46,6.31Z"/></svg>