<svg id="Layer_1" data-name="Layer 1" xmlns="http://www.w3.org/2000/svg" viewBox="0 0 133.01 16.65"><defs><style>.cls-1{fill:#231f20;}.cls-2{fill:#434143;}</style></defs><title>TACC-2-BOINC</title><path class="cls-1" d="M10.23.31V3H6.73V16.33H3.5V3H0V.31Z"/><path class="cls-1" d="M13.51.31h4l4.24,16H18.38L17.64,13H13.38l-.74,3.38H9.27Zm.43,10h3.14L15.53,3.1h0Z"/><path class="cls-1" d="M29.72,5.72c0-2.33-.48-3.34-1.93-3.34-1.64,0-2,1.64-2,6.17,0,4.84.67,5.72,2.06,5.72,1.17,0,2-.61,2-4.06h3.23c0,3.45-.85,6.44-5.09,6.44-4.85,0-5.45-3.46-5.45-8.33S23.14,0,28,0c4.62,0,5,3.39,5,5.72Z"/><path class="cls-1" d="M41.77,5.72c0-2.33-.47-3.34-1.93-3.34-1.64,0-2,1.64-2,6.17,0,4.84.67,5.72,2.06,5.72,1.17,0,2-.61,2-4.06h3.23c0,3.45-.85,6.44-5.09,6.44-4.84,0-5.45-3.46-5.45-8.33S35.2,0,40,0c4.62,0,5,3.39,5,5.72Z"/><path class="cls-1" d="M79.16.31h5.41c2.65,0,4.55,1,4.55,4.07a3.35,3.35,0,0,1-2.42,3.5v0c1.77.25,2.92,1.59,2.92,3.72,0,2.52-1.24,4.69-5,4.69H79.16Zm3.23,6.58h.92c1.78,0,2.58-.61,2.58-2.11s-.74-2.09-2.33-2.09H82.39Zm0,7.06h1.26c1.55,0,2.6-.56,2.6-2.42s-1-2.4-2.47-2.4H82.39Z"/><path class="cls-1" d="M96.76,0c4.84,0,5.45,3.46,5.45,8.32s-.61,8.33-5.45,8.33-5.45-3.46-5.45-8.33S91.91,0,96.76,0Zm0,14.27c1.9,0,2.22-1.64,2.22-5.95s-.32-5.94-2.22-5.94S94.54,4,94.54,8.32,94.85,14.27,96.76,14.27Z"/><path class="cls-1" d="M104.28,16.33V.31h3.23v16Z"/><path class="cls-1" d="M113.64.31l3.9,11h0V.31h3v16h-3.68l-4-11.21h0V16.33h-3V.31Z"/><path class="cls-1" d="M129.64,5.72c0-2.33-.47-3.34-1.93-3.34-1.64,0-2,1.64-2,6.17,0,4.84.68,5.72,2.07,5.72,1.16,0,2-.61,2-4.06H133c0,3.45-.86,6.44-5.1,6.44-4.84,0-5.45-3.46-5.45-8.33S123.07,0,127.91,0c4.62,0,5,3.39,5,5.72Z"/><path class="cls-2" d="M53.58,7.32V8.78H48V7.32Z"/><path class="cls-2" d="M57.67,4.8A2.34,2.34,0,0,1,58.2,3a3.1,3.1,0,0,1,2-.46h5.61a3.12,3.12,0,0,1,2,.46,2.34,2.34,0,0,1,.53,1.81v.72A2.68,2.68,0,0,1,68,6.9a3.46,3.46,0,0,1-1.15,1l-7.51,4.65h7.61v-2.2l1.84.61v.92a2.3,2.3,0,0,1-.54,1.8,3.12,3.12,0,0,1-2,.46H57.13V13.4a2.19,2.19,0,0,1,.18-1,3.09,3.09,0,0,1,1.16-1.1l7.86-4.94V4.08H59.51V6.8l-1.84-.5Z"/><path class="cls-2" d="M77.26,7.32V8.78H71.72V7.32Z"/></svg>